<?xml version="1.0" encoding="UTF-8" standalone="no"?>
<!-- Created with Inkscape (http://www.inkscape.org/) -->

<svg
   width="32.385036mm"
   height="32.38504mm"
   viewBox="0 0 32.385036 32.38504"
   version="1.1"
   id="svg1"
   xml:space="preserve"
   xmlns="http://www.w3.org/2000/svg"
   xmlns:svg="http://www.w3.org/2000/svg"><defs
     id="defs1" /><g
     id="layer2"
     transform="translate(-81.260576,-220.08297)"><circle
       style="opacity:1;fill:#fcfcfc;fill-opacity:1;stroke-width:0.277678"
       id="path1"
       cx="97.453087"
       cy="236.27547"
       r="15.978788" /><rect
       style="fill:#000000;fill-opacity:1;stroke:none;stroke-width:0.292214;stroke-dasharray:none;stroke-opacity:1"
       id="rect3"
       width="1.8"
       height="6.5791712"
       x="96.553078"
       y="230.17015"
       rx="0.93308634"
       ry="0.98347032" /><path
       style="fill:none;fill-opacity:1;stroke:#000000;stroke-width:1.8;stroke-linecap:round;stroke-dasharray:none;stroke-opacity:1"
       id="path3"
       d="m 100.86624,233.24069 a 4.8269448,4.8269448 0 0 1 1.04635,5.26036 4.8269448,4.8269448 0 0 1 -4.459518,2.97975 4.8269448,4.8269448 0 0 1 -4.459516,-2.97975 4.8269448,4.8269448 0 0 1 1.04635,-5.26036" /><path
       style="fill:none;fill-opacity:1;stroke:#000000;stroke-width:0.942304;stroke-linecap:round;stroke-dasharray:none;stroke-opacity:1"
       id="path12"
       d="m 86.358099,225.13297 a 15.724319,15.724319 0 0 1 22.231571,0.0416 15.724319,15.724319 0 0 1 -0.0297,22.23159 15.724319,15.724319 0 0 1 -22.231605,-0.0178 15.724319,15.724319 0 0 1 0.0059,-22.23161" /></g></svg>
