<svg width="54" height="54" viewBox="0 0 54 54" fill="none" xmlns="http://www.w3.org/2000/svg">
<path d="M27 53.6436C41.7149 53.6436 53.6436 41.7148 53.6436 26.9999C53.6436 12.2851 41.7149 0.356323 27 0.356323C12.2851 0.356323 0.356384 12.2851 0.356384 26.9999C0.356384 41.7148 12.2851 53.6436 27 53.6436Z" fill="#FCFCFC"/>
<path d="M28.5007 18.4596C28.5007 17.5539 27.8288 16.8197 27 16.8197C26.1712 16.8197 25.4993 17.5539 25.4993 18.4596V26.1502C25.4993 27.0559 26.1712 27.7901 27 27.7901C27.8288 27.7901 28.5007 27.0559 28.5007 26.1502V18.4596Z" fill="black"/>
<path d="M32.6912 21.9396C33.8169 23.0653 34.5834 24.4994 34.894 26.0607C35.2045 27.622 35.0451 29.2403 34.436 30.711C33.8268 32.1816 32.7952 33.4387 31.4716 34.3231C30.148 35.2074 28.5919 35.6795 27 35.6795C25.4081 35.6795 23.852 35.2074 22.5284 34.3231C21.2048 33.4387 20.1732 32.1816 19.564 30.711C18.9548 29.2403 18.7955 27.622 19.106 26.0607C19.4166 24.4994 20.1831 23.0653 21.3088 21.9396" stroke="black" stroke-width="3" stroke-linecap="round"/>
<path d="M8.49981 8.42053C13.4257 3.51569 20.0977 0.767709 27.049 0.780716C34.0004 0.793724 40.6621 3.56668 45.5696 8.48991C50.477 13.4131 53.2286 20.0837 53.2193 27.035C53.21 33.9864 50.4406 40.6496 45.52 45.5597C40.5994 50.4698 33.9304 53.2249 26.979 53.2193C20.0276 53.2138 13.363 50.448 8.45022 45.53C3.53748 40.612 0.778796 33.9444 0.780641 26.9931C0.782485 20.0417 3.54472 13.3756 8.46007 8.4602" stroke="black" stroke-width="1.5" stroke-linecap="round"/>
</svg>
