<svg width="54" height="54" viewBox="0 0 54 54" fill="none" xmlns="http://www.w3.org/2000/svg">
<rect width="54" height="54" fill="#F5F5F5"/>
<g clip-path="url(#clip0_0_1)">
<path d="M54 27C54 41.9117 41.9117 54 27 54C12.0883 54 0 41.9117 0 27C0 12.0883 12.0883 0 27 0C41.9117 0 54 12.0883 54 27Z" fill="#DFDFDF"/>
<path d="M53.25 27C53.25 41.4975 41.4975 53.25 27 53.25C12.5025 53.25 0.75 41.4975 0.75 27C0.75 12.5025 12.5025 0.75 27 0.75C41.4975 0.75 53.25 12.5025 53.25 27Z" stroke="black" stroke-width="1.5"/>
<path d="M32.6568 22.616C33.7757 23.7333 34.5376 25.1569 34.8463 26.7067C35.155 28.2565 34.9965 29.8629 34.391 31.3228C33.7855 32.7827 32.7601 34.0305 31.4445 34.9084C30.129 35.7863 28.5822 36.2549 27 36.2549C25.4178 36.2549 23.871 35.7863 22.5554 34.9084C21.2398 34.0305 20.2145 32.7827 19.609 31.3228C19.0035 29.8629 18.845 28.2565 19.1537 26.7067C19.4624 25.1569 20.2243 23.7333 21.3431 22.616M27 19V27" stroke="black" stroke-width="3" stroke-linecap="round"/>
</g>
<defs>
<clipPath id="clip0_0_1">
<rect width="54" height="54" fill="white"/>
</clipPath>
</defs>
</svg>
