<?xml version="1.0" encoding="UTF-8" standalone="no"?>
<!-- Created with Inkscape (http://www.inkscape.org/) -->

<svg
   width="31.957575mm"
   height="31.957575mm"
   viewBox="0 0 31.957575 31.957575"
   version="1.1"
   id="svg1"
   xml:space="preserve"
   xmlns="http://www.w3.org/2000/svg"
   xmlns:svg="http://www.w3.org/2000/svg"><defs
     id="defs1" /><g
     id="layer1"
     transform="translate(36.757794,-8.3383576)"><circle
       style="opacity:1;fill:#eaeaea;fill-opacity:1;stroke-width:0.277678"
       id="circle2"
       cx="-20.779007"
       cy="24.317146"
       r="15.978788" /><rect
       style="fill:#000000;fill-opacity:1;stroke:none;stroke-width:0.292214;stroke-dasharray:none;stroke-opacity:1"
       id="rect9"
       width="1.8"
       height="6.5791712"
       x="-21.710083"
       y="18.504097"
       rx="0.93308634"
       ry="0.98347032" /><path
       style="fill:none;fill-opacity:1;stroke:#000000;stroke-width:1.8;stroke-linecap:round;stroke-dasharray:none;stroke-opacity:1"
       id="path9"
       d="m -17.396924,21.574624 a 4.8269448,4.8269448 0 0 1 1.04635,5.260357 4.8269448,4.8269448 0 0 1 -4.459515,2.979753 4.8269448,4.8269448 0 0 1 -4.459516,-2.979753 4.8269448,4.8269448 0 0 1 1.04635,-5.260357" /><path
       style="fill:none;fill-opacity:1;stroke:#000000;stroke-width:1.8;stroke-linecap:round;stroke-dasharray:none;stroke-opacity:1"
       id="path10"
       d="m -17.396924,21.574624 a 4.8269448,4.8269448 0 0 1 1.04635,5.260357 4.8269448,4.8269448 0 0 1 -4.459515,2.979753 4.8269448,4.8269448 0 0 1 -4.459516,-2.979753 4.8269448,4.8269448 0 0 1 1.04635,-5.260357" /></g></svg>
