<svg width="53" height="46" viewBox="0 0 53 46" fill="none" xmlns="http://www.w3.org/2000/svg">
<g clip-path="url(#clip0_24_13)">
<path d="M7.6933 0C3.4312 0 0 3.41884 0 7.66557V21.7465C0 23.7565 1.62377 25.3744 3.64106 25.3744H49.3589C51.3762 25.3744 53 23.7565 53 21.7465V7.66557C53 3.41884 49.5688 0 45.3067 0H7.6933Z" fill="#595959"/>
<path d="M45.8938 17.1879H7.10657C6.0944 17.1879 5.27386 18.0055 5.27386 19.014C5.27386 20.0225 6.0944 20.8401 7.10657 20.8401H45.8938C46.906 20.8401 47.7265 20.0225 47.7265 19.014C47.7265 18.0055 46.906 17.1879 45.8938 17.1879Z" fill="#C8C9CA"/>
<path d="M45.8938 17.1849H7.10656C6.09439 17.1849 5.27386 18.0024 5.27386 19.0107C5.27386 20.019 6.09439 20.8365 7.10656 20.8365H45.8938C46.906 20.8365 47.7265 20.019 47.7265 19.0107C47.7265 18.0024 46.906 17.1849 45.8938 17.1849Z" fill="#84D4FF"/>
<path d="M22.7012 29.4376C21.034 32.3149 21.7272 34.1763 22.7012 35.8573C23.6753 37.5384 24.9909 39.2061 21.9055 43.6478" stroke="#84D4FF" stroke-width="4" stroke-linecap="round"/>
<path d="M30.1744 29.4376C28.5072 32.3149 29.2003 34.1763 30.1744 35.8573C31.1485 37.5384 32.4641 39.2061 29.3787 43.6478" stroke="#84D4FF" stroke-width="4" stroke-linecap="round"/>
</g>
<defs>
<clipPath id="clip0_24_13">
<rect width="53" height="46" fill="white"/>
</clipPath>
</defs>
</svg>
